# xmcd
#
# Track frame offsets:
#        182
#        47250
#        81895
#        120057
#        164757
#
# Disc length: 2464 seconds
#
# Revision: 3
# Processed by: cddbd v1.5.1PL0 Copyright (c) Steve Scherf et al.
# Submitted via: ExactAudioCopy v0.95a5
#
DISCID=2f099e05
DTITLE=Niels-Henning Orsted Pedersen - Trio 2
DYEAR=1977
DGENRE=Jazz
TTITLE0=The Puzzle
TTITLE1=Flower Dreams
TTITLE2=Little Train
TTITLE3=Dancing Girls
TTITLE4=Larry's Tune
EXTD=
EXTT0=
EXTT1=
EXTT2=
EXTT3=
EXTT4=
PLAYORDER=
